<?xml version="1.0" encoding="UTF-8" standalone="no"?>
<!-- Created with Inkscape (http://www.inkscape.org/) -->

<svg
   width="500"
   height="200"
   viewBox="0 0 132.29167 52.916667"
   version="1.1"
   id="svg5"
   xml:space="preserve"
   inkscape:version="1.2.2 (732a01da63, 2022-12-09)"
   sodipodi:docname="logo.svg"
   xmlns:inkscape="http://www.inkscape.org/namespaces/inkscape"
   xmlns:sodipodi="http://sodipodi.sourceforge.net/DTD/sodipodi-0.dtd"
   xmlns="http://www.w3.org/2000/svg"
   xmlns:svg="http://www.w3.org/2000/svg"><sodipodi:namedview
     id="namedview7"
     pagecolor="#ffffff"
     bordercolor="#000000"
     borderopacity="0.25"
     inkscape:showpageshadow="2"
     inkscape:pageopacity="0.0"
     inkscape:pagecheckerboard="0"
     inkscape:deskcolor="#d1d1d1"
     inkscape:document-units="in"
     showgrid="false"
     inkscape:zoom="2.3786088"
     inkscape:cx="261.28719"
     inkscape:cy="138.73656"
     inkscape:window-width="1920"
     inkscape:window-height="1009"
     inkscape:window-x="1912"
     inkscape:window-y="-8"
     inkscape:window-maximized="1"
     inkscape:current-layer="layer1" /><defs
     id="defs2"><rect
       x="302.03391"
       y="467.32016"
       width="826.43134"
       height="321.05966"
       id="rect2516" /><rect
       x="135.55852"
       y="136.74763"
       width="740.81543"
       height="196.20312"
       id="rect2406" /><rect
       x="302.03391"
       y="467.32016"
       width="1088.6101"
       height="378.50332"
       id="rect3300" /></defs><g
     inkscape:label="Layer 1"
     inkscape:groupmode="layer"
     id="layer1"><text
       xml:space="preserve"
       transform="scale(0.26458333)"
       id="text2404"
       style="font-size:12px;font-family:sans-serif;-inkscape-font-specification:sans-serif;text-align:center;white-space:pre;shape-inside:url(#rect2406);display:inline;fill:#000000;stroke:#000000;stroke-width:1.53449;stroke-linecap:round;stroke-miterlimit:3.8" /><text
       xml:space="preserve"
       transform="matrix(0.19994053,0,0,0.19994053,-59.301061,-95.908819)"
       id="text2514"
       style="font-size:122.611px;font-family:sans-serif;-inkscape-font-specification:sans-serif;text-align:center;white-space:pre;shape-inside:url(#rect2516);display:inline;fill:#62afcd;fill-opacity:1;stroke:none;stroke-width:1.53449;stroke-linecap:round;stroke-miterlimit:3.8"><tspan
         x="486.16163"
         y="579.18205"
         id="tspan9029"><tspan
           style="font-family:'Arial Rounded MT Bold';-inkscape-font-specification:'Arial Rounded MT Bold, '"
           id="tspan9027">Aquatic</tspan></tspan></text><text
       xml:space="preserve"
       transform="matrix(0.10680141,0,0,0.10680141,-7.0037328,-28.832344)"
       id="text3298"
       style="font-size:143.171px;font-family:sans-serif;-inkscape-font-specification:sans-serif;text-align:center;white-space:pre;shape-inside:url(#rect3300);display:inline;fill:#000000;stroke:none;stroke-width:1.53449;stroke-linecap:round;stroke-miterlimit:3.8"><tspan
         x="413.95964"
         y="597.93956"
         id="tspan9033"><tspan
           style="font-family:'OCR A Extended';-inkscape-font-specification:'OCR A Extended'"
           id="tspan9031">Algorithms</tspan></tspan></text><path
       style="fill:#62afcd;fill-opacity:1;stroke:none;stroke-width:0.650913;stroke-linecap:round;stroke-miterlimit:3.8"
       d="M 45.306745,3.0219482 42.028092,13.582984 51.044381,13.45689 47.103696,2.7382269 Z"
       id="path6424" /><path
       d="m 43.606159,11.678207 c 0,-1.619444 2.932251,-6.7765987 2.932251,-6.7765987 0,0 2.932256,5.1571547 2.932256,6.7765987 0,1.619445 -1.312773,2.932292 -2.932256,2.932292 -1.619483,0 -2.932251,-1.312884 -2.932251,-2.932292 z"
       id="path6845"
       style="fill:#ffffff;stroke-width:0.0382911" /><path
       id="use7019-8"
       fill="none"
       stroke="#0071bc"
       stroke-width="3.22338"
       d="m 2.8453438,34.260426 c 0.7475768,-0.590193 1.4853177,-0.590193 2.2132221,0 0.7279029,0.590192 1.465643,0.590192 2.2132206,0 0.7475763,-0.590193 1.4853167,-0.590193 2.2132214,0 0.7279031,0.590192 1.4656441,0.590192 2.2132201,0 0.747577,-0.590193 1.485318,-0.590193 2.213221,0 0.727905,0.590192 1.465645,0.590192 2.213221,0 0.747579,-0.590193 1.485319,-0.590193 2.21322,0 0.727904,0.590192 1.465644,0.590192 2.213222,0 0.747577,-0.590193 1.485318,-0.590193 2.213221,0 0.727904,0.590192 1.465644,0.590192 2.213221,0 0.747578,-0.590193 1.485318,-0.590193 2.213222,0 0.727901,0.590192 1.465642,0.590192 2.21322,0 0.747577,-0.590193 1.485317,-0.590193 2.213221,0"
       style="stroke-width:0.414376;stroke-dasharray:none"
       sodipodi:nodetypes="cssssssssssssc" /><circle
       style="fill:#ffffff;fill-opacity:1;stroke:#000000;stroke-width:0.6858;stroke-linecap:round;stroke-miterlimit:3.8;stroke-dasharray:none"
       id="path7239"
       cx="4.8387003"
       cy="4.8387008"
       r="1.0567276" /><circle
       style="fill:#ffffff;fill-opacity:1;stroke:#000000;stroke-width:1.33551;stroke-linecap:round;stroke-miterlimit:3.8;stroke-dasharray:none"
       id="circle7241"
       cx="22.182018"
       cy="11.534171"
       r="2.057838" /><path
       id="path7243"
       fill="none"
       stroke="#0071bc"
       stroke-width="3.22338"
       d="m 2.8453438,31.156984 c 0.7475768,-0.590193 1.4853177,-0.590193 2.2132221,0 0.7279029,0.590192 1.465643,0.590192 2.2132206,0 0.7475763,-0.590193 1.4853167,-0.590193 2.2132214,0 0.7279031,0.590192 1.4656441,0.590192 2.2132201,0 0.747577,-0.590193 1.485318,-0.590193 2.213221,0 0.727905,0.590192 1.465645,0.590192 2.213221,0 0.747579,-0.590193 1.485319,-0.590193 2.21322,0 0.727904,0.590192 1.465644,0.590192 2.213222,0 0.747577,-0.590193 1.485318,-0.590193 2.213221,0 0.727904,0.590192 1.465644,0.590192 2.213221,0 0.747578,-0.590193 1.485318,-0.590193 2.213222,0 0.727901,0.590192 1.465642,0.590192 2.21322,0 0.747577,-0.590193 1.485317,-0.590193 2.213221,0"
       style="stroke-width:0.414376;stroke-dasharray:none"
       sodipodi:nodetypes="cssssssssssssc" /><path
       id="path7245"
       fill="none"
       stroke="#0071bc"
       stroke-width="3.22338"
       d="m 2.8453438,28.053542 c 0.7475768,-0.590193 1.4853177,-0.590193 2.2132221,0 0.7279029,0.590192 1.465643,0.590192 2.2132206,0 0.7475763,-0.590193 1.4853167,-0.590193 2.2132214,0 0.7279031,0.590192 1.4656441,0.590192 2.2132201,0 0.747577,-0.590193 1.485318,-0.590193 2.213221,0 0.727905,0.590192 1.465645,0.590192 2.213221,0 0.747579,-0.590193 1.485319,-0.590193 2.21322,0 0.727904,0.590192 1.465644,0.590192 2.213222,0 0.747577,-0.590193 1.485318,-0.590193 2.213221,0 0.727904,0.590192 1.465644,0.590192 2.213221,0 0.747578,-0.590193 1.485318,-0.590193 2.213222,0 0.727901,0.590192 1.465642,0.590192 2.21322,0 0.747577,-0.590193 1.485317,-0.590193 2.213221,0"
       style="stroke-width:0.414376;stroke-dasharray:none"
       sodipodi:nodetypes="cssssssssssssc" /><path
       id="path7251"
       fill="none"
       stroke="#0071bc"
       stroke-width="3.22338"
       d="m 2.7897266,17.519636 3.6036532,1.390431 0.4334688,-8.398204 2.825011,6.340366 1.2677274,-1.167963 2.380072,4.282528 1.156493,-2.558392 1.545814,1.779751 0.745099,-0.80645 3.247875,2.41935 1.990752,-0.834259 2.185412,0.389321 0.350044,-4.699657 2.21322,3.086757 0.689482,-1.446049 1.679554,1.557283 2.458196,-1.890986"
       style="stroke-width:0.414376;stroke-dasharray:none"
       sodipodi:nodetypes="ccccccccccccccccc" /><circle
       style="fill:#ffffff;fill-opacity:1;stroke:#000000;stroke-width:0.661458;stroke-linecap:round;stroke-miterlimit:3.8;stroke-dasharray:none"
       id="circle7253"
       cx="13.321287"
       cy="9.7270069"
       r="1.3649809" /><circle
       style="fill:none;fill-opacity:1;stroke:#000000;stroke-width:0.193734;stroke-linecap:round;stroke-miterlimit:3.8;stroke-dasharray:none"
       id="circle7255"
       cx="6.7853017"
       cy="10.511661"
       r="0.73958844" /><circle
       style="fill:none;fill-opacity:1;stroke:#000000;stroke-width:0.193734;stroke-linecap:round;stroke-miterlimit:3.8;stroke-dasharray:none"
       id="circle8017"
       cx="2.8920944"
       cy="17.57505"
       r="0.73958844" /><circle
       style="fill:none;fill-opacity:1;stroke:#000000;stroke-width:0.193734;stroke-linecap:round;stroke-miterlimit:3.8;stroke-dasharray:none"
       id="circle8019"
       cx="11.012212"
       cy="15.628447"
       r="0.73958844" /><circle
       style="fill:none;fill-opacity:1;stroke:#000000;stroke-width:0.193734;stroke-linecap:round;stroke-miterlimit:3.8;stroke-dasharray:none"
       id="circle8021"
       cx="14.516098"
       cy="17.296965"
       r="0.73958844" /><circle
       style="fill:none;fill-opacity:1;stroke:#000000;stroke-width:0.193734;stroke-linecap:round;stroke-miterlimit:3.8;stroke-dasharray:none"
       id="circle8023"
       cx="14.516098"
       cy="17.296965"
       r="0.73958844" /><circle
       style="fill:#ffffff;fill-opacity:1;stroke:#000000;stroke-width:0.6858;stroke-linecap:round;stroke-miterlimit:3.8;stroke-dasharray:none"
       id="circle8025"
       cx="18.131338"
       cy="4.8387008"
       r="1.0567276" /><path
       style="fill:none;fill-opacity:1;stroke:#000000;stroke-width:0.617955;stroke-linecap:round;stroke-miterlimit:3.8;stroke-dasharray:none"
       d="M 17.32973,5.8408159 14.475381,8.7491457"
       id="path8101"
       sodipodi:nodetypes="cc" /><path
       style="fill:none;fill-opacity:1;stroke:#000000;stroke-width:0.661458;stroke-linecap:round;stroke-miterlimit:3.8;stroke-dasharray:none"
       d="m 15.061211,10.227421 4.759764,1.334814"
       id="path8103"
       sodipodi:nodetypes="cc" /><path
       style="fill:none;fill-opacity:1;stroke:#000000;stroke-width:0.661458;stroke-linecap:round;stroke-miterlimit:3.8;stroke-dasharray:none"
       d="M 5.8990996,4.3260064 16.989407,4.5619706"
       id="path8105" /><path
       style="fill:none;fill-opacity:1;stroke:#000000;stroke-width:0.661458;stroke-linecap:round;stroke-miterlimit:3.8;stroke-dasharray:none"
       d="M 5.4271718,5.4271718 12.085828,8.6948132"
       id="path8107"
       sodipodi:nodetypes="cc" /><circle
       style="fill:#ffffff;fill-opacity:1;stroke:#000000;stroke-width:0.6858;stroke-linecap:round;stroke-miterlimit:3.8;stroke-dasharray:none"
       id="circle8150"
       cx="29.929537"
       cy="7.5129595"
       r="1.0567276" /><path
       style="fill:none;fill-opacity:1;stroke:#000000;stroke-width:0.661458;stroke-linecap:round;stroke-miterlimit:3.8;stroke-dasharray:none"
       d="m 24.304291,10.854343 4.56197,-2.5956039"
       id="path8152"
       sodipodi:nodetypes="cc" /><path
       id="path8154"
       fill="none"
       stroke="#0071bc"
       stroke-width="3.22338"
       d="m 2.9745607,39.099127 c 3.284048,-0.854565 6.5248876,-0.854565 9.7225163,0 3.197623,0.854564 6.438458,0.854564 9.72251,0 3.284045,-0.854565 6.524883,-0.854565 9.722513,0 3.197623,0.854564 6.438463,0.854564 9.722507,0 3.28405,-0.854565 6.52489,-0.854565 9.722512,0 3.197632,0.854564 6.438467,0.854564 9.722512,0 3.284058,-0.854565 6.524893,-0.854565 9.722507,0 3.197627,0.854564 6.438462,0.854564 9.722516,0 3.284049,-0.854565 6.524888,-0.854565 9.722511,0 3.197627,0.854564 6.438463,0.854564 9.722515,0 3.28405,-0.854565 6.52489,-0.854565 9.72251,0 3.19762,0.854564 6.43846,0.854564 9.72251,0 3.28405,-0.854565 6.52489,-0.854565 9.72251,0"
       style="stroke-width:0.661458;stroke-dasharray:none"
       sodipodi:nodetypes="cssssssssssssc" /><text
       xml:space="preserve"
       style="font-style:normal;font-variant:normal;font-weight:normal;font-stretch:normal;font-size:6.25453px;font-family:'Arial Rounded MT Bold';-inkscape-font-specification:'Arial Rounded MT Bold, ';text-align:center;text-anchor:middle;fill:#000000;fill-opacity:1;stroke:none;stroke-width:0.213222;stroke-linecap:round;stroke-miterlimit:3.8;stroke-dasharray:none"
       x="65.967941"
       y="48.376286"
       id="text8259"><tspan
         sodipodi:role="line"
         id="tspan8257"
         style="stroke:none;stroke-width:0.213222"
         x="66.749756"
         y="48.376286">Exploring hydrology through data science </tspan></text><path
       id="path8987"
       fill="none"
       stroke="#0071bc"
       stroke-width="3.22338"
       d="m 2.9745607,41.101348 c 3.284048,-0.854565 6.5248876,-0.854565 9.7225163,0 3.197623,0.854564 6.438458,0.854564 9.72251,0 3.284045,-0.854565 6.524883,-0.854565 9.722513,0 3.197623,0.854564 6.438463,0.854564 9.722507,0 3.28405,-0.854565 6.52489,-0.854565 9.722512,0 3.197632,0.854564 6.438467,0.854564 9.722512,0 3.284058,-0.854565 6.524893,-0.854565 9.722507,0 3.197627,0.854564 6.438462,0.854564 9.722516,0 3.284049,-0.854565 6.524888,-0.854565 9.722511,0 3.197627,0.854564 6.438463,0.854564 9.722515,0 3.28405,-0.854565 6.52489,-0.854565 9.72251,0 3.19762,0.854564 6.43846,0.854564 9.72251,0 3.28405,-0.854565 6.52489,-0.854565 9.72251,0"
       style="stroke-width:0.661458;stroke-dasharray:none"
       sodipodi:nodetypes="cssssssssssssc" /></g></svg>
